<svg xmlns="http://www.w3.org/2000/svg" hidden aria-hidden="true">
  <defs>
    <symbol id="icon-log-in" viewBox="0 0 24 24" fill="none" stroke="currentColor" stroke-width="2" stroke-linecap="round" stroke-linejoin="round">
      <path d="M15 3h4a2 2 0 0 1 2 2v14a2 2 0 0 1-2 2h-4"/>
      <polyline points="10 17 15 12 10 7"/>
      <line x1="15" y1="12" x2="3" y2="12"/>
    </symbol>
    <symbol id="icon-log-out" viewBox="0 0 24 24" fill="none" stroke="currentColor" stroke-width="2" stroke-linecap="round" stroke-linejoin="round">
      <path d="M9 21H5a2 2 0 0 1-2-2V5a2 2 0 0 1 2-2h4"/>
      <polyline points="16 17 21 12 16 7"/>
      <line x1="21" y1="12" x2="9" y2="12"/>
    </symbol>
    <symbol id="icon-pause" viewBox="0 0 24 24" fill="none" stroke="currentColor" stroke-width="2" stroke-linecap="round" stroke-linejoin="round">
      <rect x="14" y="4" width="4" height="16" rx="1"/>
      <rect x="6" y="4" width="4" height="16" rx="1"/>
    </symbol>
    <symbol id="icon-play" viewBox="0 0 24 24" fill="none" stroke="currentColor" stroke-width="2" stroke-linecap="round" stroke-linejoin="round">
      <polygon points="6 3 20 12 6 21 6 3"/>
    </symbol>
    <symbol id="icon-pencil" viewBox="0 0 24 24" fill="none" stroke="currentColor" stroke-width="2" stroke-linecap="round" stroke-linejoin="round">
      <path d="M21.174 6.812a1 1 0 0 0-3.986-3.987L3.842 16.174a2 2 0 0 0-.5.83l-1.321 4.352a.5.5 0 0 0 .623.622l4.353-1.32a2 2 0 0 0 .83-.497z"/>
      <path d="m15 5 4 4"/>
    </symbol>
    <symbol id="icon-trash" viewBox="0 0 24 24" fill="none" stroke="currentColor" stroke-width="2" stroke-linecap="round" stroke-linejoin="round">
      <path d="M3 6h18"/>
      <path d="M19 6v14c0 1-1 2-2 2H7c-1 0-2-1-2-2V6"/>
      <path d="M8 6V4c0-1 1-2 2-2h4c1 0 2 1 2 2v2"/>
      <line x1="10" y1="11" x2="10" y2="17"/>
      <line x1="14" y1="11" x2="14" y2="17"/>
    </symbol>
    <symbol id="icon-x" viewBox="0 0 24 24" fill="none" stroke="currentColor" stroke-width="2" stroke-linecap="round" stroke-linejoin="round">
      <path d="M18 6 6 18"/>
      <path d="m6 6 12 12"/>
    </symbol>
    <symbol id="icon-clock" viewBox="0 0 24 24" fill="none" stroke="currentColor" stroke-width="2" stroke-linecap="round" stroke-linejoin="round">
      <circle cx="12" cy="12" r="10"/>
      <polyline points="12 6 12 12 16 14"/>
    </symbol>
    <symbol id="icon-plus" viewBox="0 0 24 24" fill="none" stroke="currentColor" stroke-width="2" stroke-linecap="round" stroke-linejoin="round">
      <path d="M5 12h14"/>
      <path d="M12 5v14"/>
    </symbol>
    <symbol id="icon-calendar" viewBox="0 0 24 24" fill="none" stroke="currentColor" stroke-width="2" stroke-linecap="round" stroke-linejoin="round">
      <path d="M8 2v4"/>
      <path d="M16 2v4"/>
      <rect width="18" height="18" x="3" y="4" rx="2"/>
      <path d="M3 10h18"/>
    </symbol>
    <symbol id="icon-folder" viewBox="0 0 24 24" fill="none" stroke="currentColor" stroke-width="2" stroke-linecap="round" stroke-linejoin="round">
      <path d="M20 20a2 2 0 0 0 2-2V8a2 2 0 0 0-2-2h-7.9a2 2 0 0 1-1.69-.9L9.6 3.9A2 2 0 0 0 7.93 3H4a2 2 0 0 0-2 2v13a2 2 0 0 0 2 2Z"/>
    </symbol>
    <symbol id="icon-warning" viewBox="0 0 24 24" fill="none" stroke="currentColor" stroke-width="2" stroke-linecap="round" stroke-linejoin="round">
      <path d="m21.73 18-8-14a2 2 0 0 0-3.48 0l-8 14A2 2 0 0 0 4 21h16a2 2 0 0 0 1.73-3"/>
      <path d="M12 9v4"/>
      <path d="M12 17h.01"/>
    </symbol>
  </defs>
</svg>
